<svg xmlns="http://www.w3.org/2000/svg" viewBox="0 0 668.19 69.27"><title>oslo_economics_logo</title><path d="M51.13,43.59a24.93,24.93,0,0,1-7.35,18.25,24.59,24.59,0,0,1-18.19,7.42A25.23,25.23,0,0,1,0,43.59,25.51,25.51,0,0,1,6.77,25.9a24.24,24.24,0,0,1,18.81-8.26,24.26,24.26,0,0,1,18.77,8.21A25.58,25.58,0,0,1,51.13,43.59Zm-6.45.14a19.73,19.73,0,0,0-5.51-14,17.88,17.88,0,0,0-13.58-5.87A17.88,17.88,0,0,0,12,29.75a19.72,19.72,0,0,0-5.51,14A20.12,20.12,0,0,0,9,53.5a18.11,18.11,0,0,0,7,7.2,19.07,19.07,0,0,0,9.63,2.52q11.17,0,16.52-9.59A20,20,0,0,0,44.67,43.73Z" style="fill:#9d9d9c"/><path d="M87.59,54.81A13.74,13.74,0,0,1,83.3,65.16a14.68,14.68,0,0,1-10.56,4.11,17.43,17.43,0,0,1-14.48-6.95l4-4.51Q67,63.23,72.45,63.22a9.57,9.57,0,0,0,6.32-2.32,7.29,7.29,0,0,0,2.77-5.83,7.94,7.94,0,0,0-3.29-6.26A39,39,0,0,0,71.86,45a28.61,28.61,0,0,1-8-5.55,12.57,12.57,0,0,1-3.42-8.84,12.29,12.29,0,0,1,3.86-9.37,13.45,13.45,0,0,1,9.59-3.63q6.77,0,13.63,6.63l-4.05,4.2q-5-4.87-9.86-4.87a7.73,7.73,0,0,0-5.18,1.93,6.08,6.08,0,0,0-2.25,4.8q0,4.85,9.37,9.7a32.74,32.74,0,0,1,8.38,5.69A12.65,12.65,0,0,1,87.59,54.81Z" style="fill:#9d9d9c"/><path d="M104.15,69.27H97.79V1.22h6.36Z" style="fill:#9d9d9c"/><path d="M166,43.59a24.92,24.92,0,0,1-7.36,18.25,26,26,0,0,1-36.39,0,24.87,24.87,0,0,1-7.38-18.28,25.51,25.51,0,0,1,6.77-17.69,25.56,25.56,0,0,1,37.59,0A25.57,25.57,0,0,1,166,43.59Zm-6.45.14a19.73,19.73,0,0,0-5.51-14,18.62,18.62,0,0,0-27.15,0,19.74,19.74,0,0,0-5.51,14,20.15,20.15,0,0,0,2.48,9.77,18.13,18.13,0,0,0,7,7.2,19.07,19.07,0,0,0,9.63,2.52q11.16,0,16.52-9.59A20,20,0,0,0,159.57,43.73Z" style="fill:#9d9d9c"/><path d="M226.17,44.68l0,2.35H186.6a13,13,0,0,0,4.69,8.38,14.65,14.65,0,0,0,9.37,3,16.47,16.47,0,0,0,11.85-4.78l10.37,4.87q-7.58,10.79-22.15,10.79-11.33,0-18.71-7.13t-7.38-18.41q0-11.14,7.15-18.62T200,17.65q11.59,0,18.86,7.4Q226.4,32.72,226.17,44.68Zm-12.45-7.4a12,12,0,0,0-4.9-6.7,14.31,14.31,0,0,0-8.19-2.46,14.7,14.7,0,0,0-9,2.86q-2.43,1.78-4.5,6.3Z" style="fill:#0075bf"/><path d="M284.16,28.84l-10.24,5.64a16.49,16.49,0,0,0-12.3-5.33,15.55,15.55,0,0,0-11,4,13.83,13.83,0,0,0-4.42,10.71,13.43,13.43,0,0,0,4.23,10.35A15,15,0,0,0,261.08,58q8.24,0,12.84-5.6l9.7,6.63q-7.9,10.24-22.29,10.24-11.74,0-19.5-6.9-8.13-7.18-8.12-18.73a25.07,25.07,0,0,1,3.59-13.18,25.48,25.48,0,0,1,10-9.39,29.6,29.6,0,0,1,14.26-3.43Q276.44,17.65,284.16,28.84Z" style="fill:#0075bf"/><path d="M344.36,43.41a25.94,25.94,0,0,1-3.43,13,24.73,24.73,0,0,1-9.41,9.46,26.13,26.13,0,0,1-13.16,3.41,24.42,24.42,0,0,1-18.1-7.51,25,25,0,0,1-7.4-18.25,24.75,24.75,0,0,1,8.44-19.18,24.54,24.54,0,0,1,17-6.68,26.14,26.14,0,0,1,13.06,3.45,24.9,24.9,0,0,1,9.55,9.43A25.49,25.49,0,0,1,344.36,43.41Zm-12.5,0a14.56,14.56,0,0,0-3.64-10.14,13.6,13.6,0,0,0-19.43.11,14.46,14.46,0,0,0-3.6,10,14.69,14.69,0,0,0,3.55,10.12,12.33,12.33,0,0,0,9.72,4.18,12.46,12.46,0,0,0,9.76-4.18A14.58,14.58,0,0,0,331.86,43.46Z" style="fill:#0075bf"/><path d="M398,69.27H385.74V47.77q0-6.72-.23-8.52-.67-5.5-3.28-7.57a7.85,7.85,0,0,0-4.85-1.49q-7.9,0-10.11,9.42a56.11,56.11,0,0,0-.54,10v19.7H354.42V20.17h12.32v5q7.48-6.27,14.55-6.27A16.76,16.76,0,0,1,393.69,24Q398,28.29,398,36.82Z" style="fill:#0075bf"/><path d="M459,43.41a25.93,25.93,0,0,1-3.43,13,24.71,24.71,0,0,1-9.41,9.46A26.12,26.12,0,0,1,433,69.27a24.42,24.42,0,0,1-18.1-7.51,25,25,0,0,1-7.4-18.25,24.76,24.76,0,0,1,8.44-19.18,24.55,24.55,0,0,1,17-6.68A26.15,26.15,0,0,1,446,21.1a24.91,24.91,0,0,1,9.55,9.43A25.48,25.48,0,0,1,459,43.41Zm-12.5,0a14.54,14.54,0,0,0-3.64-10.14,13.6,13.6,0,0,0-19.43.11,14.44,14.44,0,0,0-3.6,10,14.69,14.69,0,0,0,3.55,10.12,12.32,12.32,0,0,0,9.71,4.18,12.46,12.46,0,0,0,9.76-4.18A14.57,14.57,0,0,0,446.48,43.46Z" style="fill:#0075bf"/><path d="M544.32,69.27H531.86V44.39q0-6.4-1.13-9.42a7.08,7.08,0,0,0-7.17-4.82q-6.77,0-9.39,6.76Q513,40.11,513,47.14V69.27H500.5V45.52q0-11-3.88-13.93a7.65,7.65,0,0,0-4.69-1.44q-6.68,0-9.3,6.94-1.26,3.29-1.26,10.37V69.27H469V20.17h12.41v5.64a20.08,20.08,0,0,1,15.45-6.9q9.67,0,14.28,8.85a19,19,0,0,1,16.54-8.85,17.66,17.66,0,0,1,8.81,2.21,13.85,13.85,0,0,1,6.15,6.59q1.72,3.93,1.72,12.77Z" style="fill:#0075bf"/><path d="M568.6,8a7.72,7.72,0,0,1-2.27,5.6,7.44,7.44,0,0,1-5.51,2.32,7.53,7.53,0,0,1-5.63-2.36,7.93,7.93,0,0,1-2.29-5.74,7.55,7.55,0,0,1,2.29-5.54,7.82,7.82,0,0,1,11.12,0A7.8,7.8,0,0,1,568.6,8ZM567,69.27H554.56V20.17H567Z" style="fill:#0075bf"/><path d="M626.13,28.84l-10.24,5.64a16.49,16.49,0,0,0-12.3-5.33,15.55,15.55,0,0,0-11,4,13.84,13.84,0,0,0-4.42,10.71,13.43,13.43,0,0,0,4.23,10.35A15,15,0,0,0,603,58q8.25,0,12.84-5.6l9.7,6.63q-7.89,10.24-22.29,10.24-11.74,0-19.5-6.9-8.12-7.18-8.12-18.73a25.07,25.07,0,0,1,3.59-13.18,25.47,25.47,0,0,1,10-9.39,29.59,29.59,0,0,1,14.26-3.43Q618.41,17.65,626.13,28.84Z" style="fill:#0075bf"/><path d="M668.19,54a13.82,13.82,0,0,1-5.37,11.43,19.26,19.26,0,0,1-12.32,3.88,20.47,20.47,0,0,1-17.15-8.39l7.57-8.26q4.82,5.69,10.22,5.69a7,7,0,0,0,3.56-.9,3.39,3.39,0,0,0,1.85-3q0-2.89-5.36-5.56L647,46.78q-11.89-6-11.89-15a12.76,12.76,0,0,1,4.92-10.35,16.85,16.85,0,0,1,11.06-3.75,19.14,19.14,0,0,1,16.16,8.12l-7.63,7.63q-4.63-4.65-8.41-4.65-4.41,0-4.41,3.07,0,1.9,4.41,4.11l4.5,2.26q6.08,3,8.78,6A14,14,0,0,1,668.19,54Z" style="fill:#0075bf"/></svg>